<svg xmlns="http://www.w3.org/2000/svg" height="24" viewBox="0 96 960 960" width="24"><path d="M260 636h280v-40H260v40Zm0-120h440v-40H260v40Zm0-120h440v-40H260v40ZM120 899.077V280.615Q120 253 138.5 234.5 157 216 184.615 216h590.77Q803 216 821.5 234.5 840 253 840 280.615v430.77Q840 739 821.5 757.5 803 776 775.385 776H243.077L120 899.077Zm40-96.846L226.231 736h549.154q10.769 0 17.692-6.923T800 711.385v-430.77q0-10.769-6.923-17.692T775.385 256h-590.77q-10.769 0-17.692 6.923T160 280.615v521.616Zm0-521.616V256v546.231-521.616Z"/></svg>