<svg xmlns="http://www.w3.org/2000/svg" height="24" viewBox="0 96 960 960" width="24"><path d="M104.615 880.616q-27.615 0-46.115-18.5Q40 843.616 40 816V336q0-27.616 18.5-46.116t46.115-18.5h750.77q27.615 0 46.115 18.5Q920 308.384 920 336v480q0 27.616-18.5 46.116t-46.115 18.5h-750.77Zm486.77-40.001h264q9.23 0 16.923-7.692Q880 825.231 880 816V336q0-9.231-7.692-16.923-7.693-7.692-16.923-7.692h-750.77q-9.23 0-16.923 7.692Q80 326.769 80 336v480q0 9.231 7.692 16.923 7.693 7.692 16.923 7.692h24q42-54.23 102.154-87.115Q290.923 720.615 360 720.615T489.231 753.5q60.154 32.885 102.154 87.115ZM360 665.231q41.539 0 70.769-29.231Q460 606.769 460 565.231q0-41.539-29.231-70.77Q401.539 465.23 360 465.23t-70.769 29.231Q260 523.692 260 565.231q0 41.538 29.231 70.769 29.23 29.231 70.769 29.231Zm372.308 127.692 64.615-64.615-49.23-66.154h-69.077q-7.539-22.616-10.77-43.116-3.23-20.5-3.23-43.038 0-22.538 3.23-42.038 3.231-19.5 10.77-44.116h69.077l49.23-66.154-64.615-64.615q-48.616 39.692-75.846 96.5Q629.231 512.385 629.231 576t27.231 120.423q27.23 56.808 75.846 96.5ZM182 840.615h356q-34.769-38-80.885-59-46.115-21-97.115-21-51 0-97 21t-81 59ZM360 625.23q-24.692 0-42.346-17.653Q300 589.923 300 565.231q0-24.693 17.654-42.346 17.654-17.654 42.346-17.654 24.692 0 42.346 17.654Q420 540.538 420 565.231q0 24.692-17.654 42.346Q384.692 625.23 360 625.23ZM480 576Z"/></svg>