<svg xmlns="http://www.w3.org/2000/svg" height="24" viewBox="0 96 960 960" width="24"><path d="M698.462 896H296.923V456l250.769-247.693L565.385 226q5.461 5.461 9.192 14 3.731 8.538 3.731 15.692V262l-40.923 194h278q25.077 0 44.846 19.769Q880 495.538 880 520.615v49.231q0 5.462-1.231 11.923-1.23 6.462-3.23 11.923L766.308 852.616q-8.231 18.461-27.692 30.923Q719.154 896 698.462 896Zm-361.539-40h361.539q8.461 0 17.307-4.615 8.846-4.616 13.462-15.385L840 576v-55.385q0-10.769-6.923-17.692T815.385 496H487.692L534 277.538 336.923 473.077V856Zm0-382.923V856 473.077Zm-40-17.077v40H160v360h136.923v40H120V456h176.923Z"/></svg>